<svg width="56" height="55" viewBox="0 0 56 55" fill="none" xmlns="http://www.w3.org/2000/svg">
<g clip-path="url(#clip0)">
<mask id="path-1-inside-1" fill="white">
<path d="M23.4565 51.7395H32.5435C32.5435 52.6042 32.1656 53.4336 31.4929 54.045C30.8202 54.6565 29.9079 55 28.9565 55H27.0435C26.0922 55 25.1798 54.6565 24.5071 54.045C23.8345 53.4336 23.4565 52.6042 23.4565 51.7395H23.4565Z"/>
</mask>
<path d="M23.4565 51.7395H32.5435C32.5435 52.6042 32.1656 53.4336 31.4929 54.045C30.8202 54.6565 29.9079 55 28.9565 55H27.0435C26.0922 55 25.1798 54.6565 24.5071 54.045C23.8345 53.4336 23.4565 52.6042 23.4565 51.7395H23.4565Z" fill="#C8E2FC" stroke="black" stroke-width="4" mask="url(#path-1-inside-1)"/>
<mask id="path-2-inside-2" fill="white">
<path d="M34.6667 44.4395V41.4095C34.6667 37.7483 39.0472 34.2853 41.8889 31.8146C45.8944 28.334 48 23.6577 48 18.1798C48 13.367 45.9004 8.75053 42.1617 5.34262C38.423 1.93472 33.3502 0.0134582 28.0555 7.04349e-05C22.7608 -0.0133173 17.6764 1.88226 13.9169 5.2712C10.1573 8.66015 8.02957 13.2659 8.00008 18.0786C7.99997 18.1124 7.99997 18.1461 8.00008 18.1798C8.00008 23.462 10.1959 28.4552 14.1112 31.8146C16.9376 34.2399 21.3334 37.7104 21.3334 41.4095V44.4395"/>
</mask>
<path d="M34.6667 44.4395V41.4095C34.6667 37.7483 39.0472 34.2853 41.8889 31.8146C45.8944 28.334 48 23.6577 48 18.1798C48 13.367 45.9004 8.75053 42.1617 5.34262C38.423 1.93472 33.3502 0.0134582 28.0555 7.04349e-05C22.7608 -0.0133173 17.6764 1.88226 13.9169 5.2712C10.1573 8.66015 8.02957 13.2659 8.00008 18.0786C7.99997 18.1124 7.99997 18.1461 8.00008 18.1798C8.00008 23.462 10.1959 28.4552 14.1112 31.8146C16.9376 34.2399 21.3334 37.7104 21.3334 41.4095V44.4395" fill="#175190"/>
<path d="M41.8889 31.8146L40.5771 30.305L40.5766 30.3053L41.8889 31.8146ZM48 18.1798H50V18.1798L48 18.1798ZM8.00008 18.0786L6.00011 18.0664L6.00009 18.0725L8.00008 18.0786ZM8.00008 18.1798H10.0001L10.0001 18.1736L8.00008 18.1798ZM14.1112 31.8146L15.4136 30.2968L15.4135 30.2968L14.1112 31.8146ZM36.6667 44.4395V41.4095H32.6667V44.4395H36.6667ZM36.6667 41.4095C36.6667 40.3462 37.332 39.0418 38.7072 37.4941C40.0475 35.9857 41.7152 34.6159 43.2012 33.3239L40.5766 30.3053C39.2209 31.4841 37.2775 33.0811 35.7171 34.8372C34.1916 36.554 32.6667 38.8116 32.6667 41.4095H36.6667ZM43.2007 33.3243C47.6564 29.4525 50 24.2194 50 18.1798H46C46 23.096 44.1325 27.2154 40.5771 30.305L43.2007 33.3243ZM50 18.1798C49.9999 12.7727 47.6395 7.62953 43.509 3.86453L40.8144 6.82072C44.1614 9.87152 46 13.9612 46 18.1798L50 18.1798ZM43.509 3.86453C39.3848 0.105285 33.8265 -1.98534 28.0606 -1.99992L28.0505 2.00006C32.8738 2.01226 37.4611 3.76415 40.8144 6.82072L43.509 3.86453ZM28.0606 -1.99992C22.2946 -2.0145 16.7242 0.0479532 12.5777 3.78567L15.256 6.75673C18.6286 3.71657 23.2271 1.98787 28.0505 2.00006L28.0606 -1.99992ZM12.5777 3.78567C8.42504 7.52905 6.03325 12.6595 6.00012 18.0664L10 18.0909C10.0259 13.8723 11.8896 9.79124 15.256 6.75673L12.5777 3.78567ZM6.00009 18.0725C5.99997 18.1103 5.99997 18.1481 6.00009 18.186L10.0001 18.1736C9.99998 18.144 9.99998 18.1144 10.0001 18.0848L6.00009 18.0725ZM6.00008 18.1798C6.00008 24.0118 8.42574 29.5716 12.8088 33.3325L15.4135 30.2968C11.9661 27.3387 10.0001 22.9123 10.0001 18.1798H6.00008ZM12.8088 33.3325C14.2814 34.5961 15.9494 35.9584 17.2876 37.4634C18.6606 39.0075 19.3334 40.3244 19.3334 41.4095H23.3334C23.3334 38.7955 21.8082 36.5277 20.2768 34.8054C18.7105 33.044 16.7673 31.4584 15.4136 30.2968L12.8088 33.3325ZM19.3334 41.4095V44.4395H23.3334V41.4095H19.3334Z" fill="black" mask="url(#path-2-inside-2)"/>
<mask id="path-4-inside-3" fill="white">
<path d="M32.4444 50.3219H23.5555C23.3487 50.3219 23.1504 50.2472 23.0041 50.1143C22.8579 49.9814 22.7758 49.8011 22.7758 49.6131C22.7758 49.4251 22.8579 49.2448 23.0041 49.1119C23.1504 48.979 23.3487 48.9043 23.5555 48.9043H32.4444C32.6512 48.9043 32.8495 48.979 32.9958 49.1119C33.142 49.2448 33.2242 49.4251 33.2242 49.6131C33.2242 49.8011 33.142 49.9814 32.9958 50.1143C32.8495 50.2472 32.6512 50.3219 32.4444 50.3219Z"/>
</mask>
<path d="M32.4444 50.3219H23.5555C23.3487 50.3219 23.1504 50.2472 23.0041 50.1143C22.8579 49.9814 22.7758 49.8011 22.7758 49.6131C22.7758 49.4251 22.8579 49.2448 23.0041 49.1119C23.1504 48.979 23.3487 48.9043 23.5555 48.9043H32.4444C32.6512 48.9043 32.8495 48.979 32.9958 49.1119C33.142 49.2448 33.2242 49.4251 33.2242 49.6131C33.2242 49.8011 33.142 49.9814 32.9958 50.1143C32.8495 50.2472 32.6512 50.3219 32.4444 50.3219Z" fill="#175190" stroke="black" stroke-width="4" mask="url(#path-4-inside-3)"/>
<mask id="path-5-inside-4" fill="white">
<path d="M34.6667 47.806H21.3334C21.1266 47.806 20.9282 47.7314 20.782 47.5984C20.6357 47.4655 20.5536 47.2852 20.5536 47.0972C20.5536 46.9092 20.6357 46.729 20.782 46.596C20.9282 46.4631 21.1266 46.3884 21.3334 46.3884H34.6667C34.8735 46.3884 35.0718 46.4631 35.2181 46.596C35.3643 46.729 35.4465 46.9092 35.4465 47.0972C35.4465 47.2852 35.3643 47.4655 35.2181 47.5984C35.0718 47.7314 34.8735 47.806 34.6667 47.806Z"/>
</mask>
<path d="M34.6667 47.806H21.3334C21.1266 47.806 20.9282 47.7314 20.782 47.5984C20.6357 47.4655 20.5536 47.2852 20.5536 47.0972C20.5536 46.9092 20.6357 46.729 20.782 46.596C20.9282 46.4631 21.1266 46.3884 21.3334 46.3884H34.6667C34.8735 46.3884 35.0718 46.4631 35.2181 46.596C35.3643 46.729 35.4465 46.9092 35.4465 47.0972C35.4465 47.2852 35.3643 47.4655 35.2181 47.5984C35.0718 47.7314 34.8735 47.806 34.6667 47.806Z" fill="#175190" stroke="black" stroke-width="4" mask="url(#path-5-inside-4)"/>
<mask id="path-6-inside-5" fill="white">
<path d="M28.0001 45.1482C27.8977 45.1482 27.7963 45.1299 27.7017 45.0943C27.6071 45.0586 27.5211 45.0064 27.4487 44.9406C27.3763 44.8748 27.3189 44.7966 27.2797 44.7107C27.2405 44.6247 27.2203 44.5325 27.2203 44.4394V28.2796C27.2203 28.0916 27.3025 27.9113 27.4487 27.7784C27.595 27.6455 27.7933 27.5708 28.0001 27.5708C28.2069 27.5708 28.4053 27.6455 28.5515 27.7784C28.6977 27.9113 28.7799 28.0916 28.7799 28.2796V44.4394C28.7799 44.5325 28.7597 44.6247 28.7205 44.7107C28.6813 44.7966 28.6239 44.8748 28.5515 44.9406C28.4791 45.0064 28.3931 45.0586 28.2985 45.0943C28.2039 45.1299 28.1025 45.1482 28.0001 45.1482Z"/>
</mask>
<path d="M28.0001 45.1482C27.8977 45.1482 27.7963 45.1299 27.7017 45.0943C27.6071 45.0586 27.5211 45.0064 27.4487 44.9406C27.3763 44.8748 27.3189 44.7966 27.2797 44.7107C27.2405 44.6247 27.2203 44.5325 27.2203 44.4394V28.2796C27.2203 28.0916 27.3025 27.9113 27.4487 27.7784C27.595 27.6455 27.7933 27.5708 28.0001 27.5708C28.2069 27.5708 28.4053 27.6455 28.5515 27.7784C28.6977 27.9113 28.7799 28.0916 28.7799 28.2796V44.4394C28.7799 44.5325 28.7597 44.6247 28.7205 44.7107C28.6813 44.7966 28.6239 44.8748 28.5515 44.9406C28.4791 45.0064 28.3931 45.0586 28.2985 45.0943C28.2039 45.1299 28.1025 45.1482 28.0001 45.1482Z" fill="white" stroke="black" stroke-width="4" mask="url(#path-6-inside-5)"/>
<mask id="path-7-inside-6" fill="white">
<path d="M28.0001 28.9885C25.4806 28.9885 22.3873 26.9166 22.2569 26.8284C22.1747 26.7729 22.1054 26.7032 22.0529 26.6233C22.0003 26.5433 21.9657 26.4548 21.9508 26.3627C21.9359 26.2706 21.9411 26.1768 21.9662 26.0865C21.9912 25.9962 22.0355 25.9114 22.0966 25.8367C22.1578 25.762 22.2345 25.699 22.3224 25.6512C22.4103 25.6035 22.5077 25.572 22.609 25.5584C22.7103 25.5449 22.8136 25.5497 22.9129 25.5724C23.0122 25.5952 23.1055 25.6355 23.1877 25.691C23.9627 26.2137 26.3388 27.5709 28.0001 27.5709C29.6613 27.5709 32.0374 26.2137 32.8128 25.6908C32.895 25.6352 32.9884 25.5949 33.0877 25.5722C33.187 25.5495 33.2902 25.5448 33.3916 25.5583C33.4929 25.5719 33.5903 25.6034 33.6781 25.6512C33.766 25.699 33.8427 25.762 33.9038 25.8367C33.9649 25.9114 34.0092 25.9963 34.0342 26.0866C34.0592 26.1768 34.0644 26.2707 34.0495 26.3628C34.0346 26.4549 33.9999 26.5434 33.9473 26.6233C33.8948 26.7032 33.8254 26.7729 33.7433 26.8284C33.6128 26.9166 30.5195 28.9885 28.0001 28.9885Z"/>
</mask>
<path d="M28.0001 28.9885C25.4806 28.9885 22.3873 26.9166 22.2569 26.8284C22.1747 26.7729 22.1054 26.7032 22.0529 26.6233C22.0003 26.5433 21.9657 26.4548 21.9508 26.3627C21.9359 26.2706 21.9411 26.1768 21.9662 26.0865C21.9912 25.9962 22.0355 25.9114 22.0966 25.8367C22.1578 25.762 22.2345 25.699 22.3224 25.6512C22.4103 25.6035 22.5077 25.572 22.609 25.5584C22.7103 25.5449 22.8136 25.5497 22.9129 25.5724C23.0122 25.5952 23.1055 25.6355 23.1877 25.691C23.9627 26.2137 26.3388 27.5709 28.0001 27.5709C29.6613 27.5709 32.0374 26.2137 32.8128 25.6908C32.895 25.6352 32.9884 25.5949 33.0877 25.5722C33.187 25.5495 33.2902 25.5448 33.3916 25.5583C33.4929 25.5719 33.5903 25.6034 33.6781 25.6512C33.766 25.699 33.8427 25.762 33.9038 25.8367C33.9649 25.9114 34.0092 25.9963 34.0342 26.0866C34.0592 26.1768 34.0644 26.2707 34.0495 26.3628C34.0346 26.4549 33.9999 26.5434 33.9473 26.6233C33.8948 26.7032 33.8254 26.7729 33.7433 26.8284C33.6128 26.9166 30.5195 28.9885 28.0001 28.9885Z" fill="white" stroke="black" stroke-width="4" mask="url(#path-7-inside-6)"/>
</g>
<defs>
<clipPath id="clip0">
<rect width="55" height="55" fill="white" transform="translate(0.21051 0.000732422)"/>
</clipPath>
</defs>
</svg>
