<svg width="56" height="56" viewBox="0 0 56 56" fill="none" xmlns="http://www.w3.org/2000/svg">
<mask id="path-1-inside-1" fill="white">
<path d="M55.0787 28.1041V28.2687C55.075 28.6821 55.0631 29.0937 55.0432 29.5034C54.6866 36.5145 51.6618 43.1238 46.5889 47.9767C41.516 52.8297 34.779 55.5587 27.7586 55.6046C20.7383 55.6506 13.9661 53.0099 8.83015 48.2237C3.69416 43.4376 0.583229 36.8684 0.134894 29.8625C0.0974764 29.2808 0.0787734 28.6946 0.0787765 28.1041C0.0689057 22.4086 1.8366 16.852 5.13541 12.209C5.39918 11.8349 5.67355 11.4676 5.95853 11.1072C6.15496 10.8566 6.357 10.6115 6.56092 10.3683C11.2032 4.869 17.816 1.40817 24.9807 0.728305C32.1454 0.0484452 39.2912 2.20372 44.885 6.73174C45.2162 6.99924 45.5417 7.2761 45.8597 7.55857C46.1141 7.78492 46.3642 8.01626 46.6099 8.25259C51.4487 12.8809 54.427 19.1194 54.9833 25.792C55.0469 26.5552 55.0787 27.3259 55.0787 28.1041Z"/>
</mask>
<path d="M55.0787 28.1041V28.2687C55.075 28.6821 55.0631 29.0937 55.0432 29.5034C54.6866 36.5145 51.6618 43.1238 46.5889 47.9767C41.516 52.8297 34.779 55.5587 27.7586 55.6046C20.7383 55.6506 13.9661 53.0099 8.83015 48.2237C3.69416 43.4376 0.583229 36.8684 0.134894 29.8625C0.0974764 29.2808 0.0787734 28.6946 0.0787765 28.1041C0.0689057 22.4086 1.8366 16.852 5.13541 12.209C5.39918 11.8349 5.67355 11.4676 5.95853 11.1072C6.15496 10.8566 6.357 10.6115 6.56092 10.3683C11.2032 4.869 17.816 1.40817 24.9807 0.728305C32.1454 0.0484452 39.2912 2.20372 44.885 6.73174C45.2162 6.99924 45.5417 7.2761 45.8597 7.55857C46.1141 7.78492 46.3642 8.01626 46.6099 8.25259C51.4487 12.8809 54.427 19.1194 54.9833 25.792C55.0469 26.5552 55.0787 27.3259 55.0787 28.1041Z" fill="#175190" stroke="black" stroke-width="4" mask="url(#path-1-inside-1)"/>
<mask id="path-2-inside-2" fill="white">
<path d="M5.95853 11.1071C5.97201 11.1127 5.98461 11.1203 5.99595 11.1295C6.14374 11.2511 5.95854 11.4849 5.98098 11.6776C6.00717 11.9245 6.33642 11.9788 6.58523 12.0031C6.83404 12.0293 7.14833 12.2295 7.03047 12.4502C6.40564 12.6653 5.77333 12.4539 5.1354 12.2089C1.8366 16.8519 0.068908 22.4085 0.0787764 28.1039C0.0787764 28.6951 0.0974785 29.2812 0.134894 29.8624C0.187199 29.9005 0.244478 29.9314 0.305135 29.954C0.492209 30.0251 0.709216 30.012 0.881325 30.113C1.01789 30.1935 1.10956 30.3356 1.24612 30.4105C1.63711 30.6237 2.17962 30.2141 2.54442 30.4685C2.63871 30.5543 2.72803 30.6455 2.81193 30.7416C3.14867 31.0334 3.70241 30.837 4.09152 31.0559C4.3422 31.1962 4.47129 31.4767 4.60598 31.7312C4.94085 32.3672 5.48337 32.992 6.19986 33.0425C6.42584 33.0321 6.65227 33.0396 6.87707 33.065C7.09781 33.1155 7.31483 33.3081 7.27928 33.5307C7.21755 33.9142 7.40649 34.3333 7.35598 34.7168C7.26432 35.4183 6.27094 35.725 6.18676 36.4265C6.18648 36.5809 6.17774 36.7352 6.16058 36.8886C6.11568 37.0719 5.97724 37.2216 5.9286 37.4049C5.83506 37.751 6.08387 38.0971 6.35513 38.329C6.62826 38.5629 6.95377 38.7649 7.10343 39.0904C7.26058 39.4365 7.18387 39.8386 7.23438 40.2147C7.34662 41.0359 8.05564 41.6438 8.78523 42.0367C9.01903 42.1344 9.22664 42.2856 9.39135 42.4782C9.57843 42.7494 9.55972 43.1067 9.62332 43.4303C9.77672 44.2216 10.4427 44.8745 10.4614 45.6807C10.4745 46.255 10.1565 46.7751 9.96567 47.3157C9.76938 47.8824 9.71102 48.4878 9.79543 49.0816C10.8621 49.9862 11.9959 50.8086 13.1871 51.5415C13.2519 51.4458 13.2994 51.3394 13.3274 51.2273C13.35 51.1032 13.3344 50.9753 13.2826 50.8604C13.2308 50.7454 13.1453 50.649 13.0374 50.5837C13.2385 50.5078 13.4214 50.3905 13.5743 50.2395C13.6495 50.1623 13.6991 50.0638 13.7165 49.9574C13.7339 49.851 13.7182 49.7419 13.6716 49.6447C14.0009 49.6858 14.3919 49.7064 14.6089 49.4539C14.7829 49.2518 14.7716 48.9488 14.7024 48.6925C14.6332 48.4343 14.5172 48.1855 14.5153 47.918C15.2782 47.9552 16.0428 47.9295 16.8014 47.8413C16.6916 47.4713 16.442 47.1586 16.1055 46.9696C16.4497 46.9116 16.7621 46.5001 16.8706 46.169C16.9644 45.8312 16.9696 45.4749 16.8856 45.1345C16.8596 45.047 16.8557 44.9544 16.8743 44.8651C16.9297 44.7465 17.027 44.6525 17.1475 44.6013C17.7162 44.274 18.2849 43.9472 18.8536 43.6211C18.9551 43.5699 19.0474 43.5023 19.1267 43.421C19.3044 43.2096 19.2783 42.8934 19.1866 42.6334C19.0949 42.3734 18.949 42.1283 18.9135 41.8552C18.8087 41.0377 19.6842 40.4503 19.9798 39.6796C20.0803 39.372 20.1345 39.0511 20.1407 38.7275C20.165 38.3795 20.1669 37.9773 19.9012 37.7547C19.6449 37.5396 19.2465 37.5882 18.9789 37.3881C18.7339 37.2047 18.6497 36.8512 18.3822 36.7034C18.139 36.5687 17.8359 36.6548 17.5647 36.5912C17.0895 36.4808 16.7902 35.9327 16.3038 35.8822C16.0306 35.8522 15.7201 35.9869 15.4956 35.8279C15.2973 35.6858 15.2898 35.4033 15.2524 35.1638C15.186 34.7909 15.007 34.4472 14.7394 34.179C14.4719 33.9108 14.1286 33.7309 13.7558 33.6636C13.4733 33.6187 13.1665 33.6355 12.9252 33.4802C12.682 33.3231 12.5716 33.0294 12.3789 32.8105C12.0721 32.4607 11.5857 32.3354 11.1311 32.2288C10.5138 32.0847 9.89708 31.9401 9.28098 31.7948C8.9536 31.7162 8.53081 31.675 8.35309 31.9631C8.30049 32.0727 8.26395 32.1892 8.24458 32.3092C8.17776 32.5251 8.0445 32.7144 7.86377 32.8501C7.68305 32.9858 7.4641 33.061 7.23813 33.065C7.08343 32.8008 6.83282 32.6065 6.53846 32.5225C6.34613 32.4902 6.15615 32.4452 5.96976 32.3878C5.87242 32.3401 5.78583 32.273 5.71529 32.1907C5.64476 32.1084 5.59176 32.0126 5.55954 31.9091C5.52732 31.8056 5.51656 31.6967 5.5279 31.5889C5.53925 31.4811 5.57247 31.3767 5.62554 31.2822C5.73162 31.0924 5.77242 30.8729 5.74166 30.6576C5.71091 30.4424 5.6103 30.2431 5.4553 30.0906C5.14101 29.8081 4.68642 29.7389 4.26363 29.767C4.15326 29.5256 4.33847 29.2544 4.53677 29.0786C4.73693 28.9046 4.97827 28.7325 5.0213 28.4706C5.09051 28.059 4.56483 27.7466 4.16636 27.8682C3.76789 27.9917 3.51347 28.3789 3.3451 28.7605C3.26344 28.9857 3.15208 29.199 3.01398 29.3947C2.94321 29.4915 2.84704 29.5669 2.73611 29.6124C2.62517 29.658 2.5038 29.672 2.38541 29.6529C2.05616 29.5687 1.93082 29.1777 1.85786 28.8485C1.74094 28.4084 1.68183 27.955 1.682 27.4997C1.68486 27.0399 1.86749 26.5995 2.19085 26.2726C2.73524 25.7712 3.57333 25.8199 4.30853 25.9003C4.22978 25.7953 4.19204 25.6651 4.20237 25.5343C4.2127 25.4034 4.2704 25.2808 4.36466 25.1894C4.46304 25.1021 4.58126 25.0401 4.70906 25.0088C4.83686 24.9775 4.97037 24.9778 5.09799 25.0099C5.31964 25.0558 5.51935 25.175 5.66483 25.3485C5.87435 25.6029 5.93421 25.9489 6.09136 26.237C6.25037 26.527 6.60581 26.7739 6.89578 26.6186C7.14833 26.4839 7.18761 26.136 7.12588 25.8573C7.06227 25.5804 6.92945 25.3092 6.95189 25.0248C6.99492 24.4842 7.55802 24.1568 8.05377 23.9342C8.54952 23.7116 9.11635 23.4104 9.19492 22.8717C9.19855 22.7669 9.21876 22.6634 9.25479 22.5649C9.30965 22.477 9.38635 22.4048 9.47741 22.3554C10.9235 21.3995 12.3958 20.4305 14.0495 19.9086C14.1356 19.8805 14.1449 19.9104 14.2328 19.8899C14.3563 19.8188 14.274 19.6223 14.1561 19.5438C14.0383 19.4652 13.8811 19.4035 13.8512 19.265C13.8306 19.164 13.8905 19.063 13.9055 18.9601C13.9094 18.898 13.898 18.8358 13.8723 18.7791C13.8466 18.7224 13.8074 18.6728 13.7581 18.6348C13.7088 18.5968 13.6509 18.5714 13.5895 18.5609C13.5281 18.5505 13.4651 18.5552 13.406 18.5748C13.2732 18.3989 13.5351 18.195 13.7483 18.1352C14.3869 17.9603 15.0422 17.8536 15.7033 17.8172C15.7796 17.8046 15.8579 17.8177 15.9259 17.8546C15.9745 17.9015 16.0033 17.9652 16.0064 18.0327C16.0096 18.1002 15.9868 18.1663 15.9427 18.2175C15.8527 18.3174 15.7531 18.4083 15.6453 18.4887C15.5379 18.593 15.4613 18.7247 15.4237 18.8695C15.3861 19.0143 15.389 19.1667 15.432 19.3099C15.7781 19.4858 16.1522 19.6672 16.5357 19.6055C16.9174 19.5438 17.256 19.1135 17.0764 18.7712C16.9099 18.4513 16.4067 18.3783 16.3206 18.0285C16.2196 17.6189 16.7995 17.2541 16.6686 16.8538C16.6124 16.6779 16.4366 16.5732 16.3019 16.4478C16.1434 16.2918 16.0356 16.0916 15.9925 15.8733C15.9495 15.6551 15.9732 15.429 16.0606 15.2244C15.8415 15.2627 15.6166 15.248 15.4044 15.1816C15.1922 15.1152 14.999 14.9991 14.8408 14.8428C14.549 14.5491 14.317 14.0833 13.9017 14.0983C13.522 14.1095 13.1946 14.5528 12.8391 14.4181C12.7512 14.3845 12.6595 14.3171 12.5754 14.3564C12.5476 14.3743 12.5242 14.3982 12.5071 14.4264C12.4899 14.4546 12.4793 14.4863 12.4762 14.5192C12.3864 14.9513 12.5417 15.4433 12.306 15.8174C12.0497 16.2233 11.4567 16.2795 11.1461 16.6461C10.9777 16.8444 10.9123 17.1119 10.757 17.3214C10.6017 17.5309 10.2743 17.6656 10.0873 17.4823C10.1789 17.2945 10.204 17.0811 10.1584 16.8772C10.1129 16.6733 9.9994 16.4909 9.83659 16.3599C9.66428 16.2468 9.47818 16.1563 9.28284 16.0905C9.06464 15.9984 8.85702 15.883 8.66363 15.7463C8.56724 15.6876 8.48892 15.6035 8.43727 15.5031C8.3964 15.377 8.4017 15.2404 8.45223 15.1178C8.54695 14.8476 8.71352 14.6084 8.93403 14.4258C9.15454 14.2432 9.42066 14.1241 9.70376 14.0814C9.9507 14.0478 10.2388 14.059 10.4034 13.87C10.4895 13.7709 10.5344 13.6194 10.6616 13.5801C10.7417 13.5634 10.8251 13.5732 10.8992 13.6082C11.2078 13.7167 11.5146 13.8252 11.8233 13.9337C11.9262 13.9809 12.0399 13.9996 12.1526 13.9879C12.2084 13.9807 12.2594 13.9525 12.2952 13.9091C12.331 13.8657 12.3489 13.8102 12.3453 13.7541C12.3153 13.6007 12.0796 13.5277 12.1021 13.3725C12.113 13.3217 12.1399 13.2758 12.1788 13.2415C12.5124 12.8866 12.9204 12.6099 13.3735 12.431C13.8266 12.2522 14.3136 12.1757 14.7997 12.207C14.9157 12.3997 14.7323 12.6261 14.5771 12.7888C14.4237 12.9534 14.3002 13.2452 14.4873 13.3706C14.5627 13.4102 14.6472 13.4295 14.7323 13.4267C14.9598 13.4572 15.1809 13.5242 15.3871 13.625C15.707 13.7634 16.0213 13.9168 16.3281 14.0814C16.2829 13.8809 16.2907 13.672 16.3505 13.4753C16.3843 13.3788 16.4529 13.2983 16.5428 13.2495C16.6327 13.2008 16.7376 13.1872 16.8369 13.2116C17.0203 13.2827 17.1138 13.5258 17.3102 13.5483C17.5703 13.5782 17.6732 13.1929 17.5647 12.9534C17.4561 12.714 17.2391 12.5157 17.2223 12.2519C17.2092 12.0761 17.2766 11.8572 17.1362 11.7506C17.0864 11.7175 17.0293 11.697 16.9697 11.6907C15.7949 11.4756 14.6195 11.2598 13.4434 11.0435C13.2339 11.0042 12.9327 11.0341 12.9233 11.2455C12.9177 11.3652 13.0243 11.4831 12.9776 11.5916C12.9271 11.7076 12.7624 11.6982 12.6427 11.7394C12.5528 11.7802 12.4785 11.8492 12.4313 11.9359C12.384 12.0226 12.3663 12.1224 12.3808 12.2201C12.4128 12.4146 12.4882 12.5994 12.6016 12.7607C12.3714 12.6653 12.0254 12.6485 11.7953 12.5512C11.7618 12.2848 11.6939 12.0238 11.5932 11.7749C11.5875 11.7353 11.5731 11.6974 11.5511 11.6639C11.5292 11.6305 11.5001 11.6022 11.4661 11.5812C11.432 11.5601 11.3937 11.5468 11.354 11.5421C11.3142 11.5375 11.2739 11.5416 11.2359 11.5542C10.9328 11.6009 10.6298 11.6458 10.3267 11.6926C10.2506 11.6962 10.1777 11.7244 10.1191 11.773C10.0012 11.8984 10.1172 12.0985 10.1135 12.2706C10.1025 12.3669 10.0618 12.4573 9.99714 12.5294C9.93244 12.6014 9.8469 12.6516 9.7524 12.6728C9.562 12.7115 9.36554 12.7089 9.17621 12.6653C8.75155 12.5999 8.32876 12.5344 7.9041 12.4689C8.27894 12.3495 8.61232 12.1264 8.86567 11.8254C9.03404 11.6271 9.12383 11.2567 8.88063 11.1632C8.80881 11.1435 8.73387 11.1378 8.65989 11.1464C8.08369 11.1501 7.62911 10.6693 7.09033 10.4654C6.92092 10.4022 6.74172 10.3693 6.56091 10.3682L5.95853 11.1071Z"/>
</mask>
<path d="M5.95853 11.1071C5.97201 11.1127 5.98461 11.1203 5.99595 11.1295C6.14374 11.2511 5.95854 11.4849 5.98098 11.6776C6.00717 11.9245 6.33642 11.9788 6.58523 12.0031C6.83404 12.0293 7.14833 12.2295 7.03047 12.4502C6.40564 12.6653 5.77333 12.4539 5.1354 12.2089C1.8366 16.8519 0.068908 22.4085 0.0787764 28.1039C0.0787764 28.6951 0.0974785 29.2812 0.134894 29.8624C0.187199 29.9005 0.244478 29.9314 0.305135 29.954C0.492209 30.0251 0.709216 30.012 0.881325 30.113C1.01789 30.1935 1.10956 30.3356 1.24612 30.4105C1.63711 30.6237 2.17962 30.2141 2.54442 30.4685C2.63871 30.5543 2.72803 30.6455 2.81193 30.7416C3.14867 31.0334 3.70241 30.837 4.09152 31.0559C4.3422 31.1962 4.47129 31.4767 4.60598 31.7312C4.94085 32.3672 5.48337 32.992 6.19986 33.0425C6.42584 33.0321 6.65227 33.0396 6.87707 33.065C7.09781 33.1155 7.31483 33.3081 7.27928 33.5307C7.21755 33.9142 7.40649 34.3333 7.35598 34.7168C7.26432 35.4183 6.27094 35.725 6.18676 36.4265C6.18648 36.5809 6.17774 36.7352 6.16058 36.8886C6.11568 37.0719 5.97724 37.2216 5.9286 37.4049C5.83506 37.751 6.08387 38.0971 6.35513 38.329C6.62826 38.5629 6.95377 38.7649 7.10343 39.0904C7.26058 39.4365 7.18387 39.8386 7.23438 40.2147C7.34662 41.0359 8.05564 41.6438 8.78523 42.0367C9.01903 42.1344 9.22664 42.2856 9.39135 42.4782C9.57843 42.7494 9.55972 43.1067 9.62332 43.4303C9.77672 44.2216 10.4427 44.8745 10.4614 45.6807C10.4745 46.255 10.1565 46.7751 9.96567 47.3157C9.76938 47.8824 9.71102 48.4878 9.79543 49.0816C10.8621 49.9862 11.9959 50.8086 13.1871 51.5415C13.2519 51.4458 13.2994 51.3394 13.3274 51.2273C13.35 51.1032 13.3344 50.9753 13.2826 50.8604C13.2308 50.7454 13.1453 50.649 13.0374 50.5837C13.2385 50.5078 13.4214 50.3905 13.5743 50.2395C13.6495 50.1623 13.6991 50.0638 13.7165 49.9574C13.7339 49.851 13.7182 49.7419 13.6716 49.6447C14.0009 49.6858 14.3919 49.7064 14.6089 49.4539C14.7829 49.2518 14.7716 48.9488 14.7024 48.6925C14.6332 48.4343 14.5172 48.1855 14.5153 47.918C15.2782 47.9552 16.0428 47.9295 16.8014 47.8413C16.6916 47.4713 16.442 47.1586 16.1055 46.9696C16.4497 46.9116 16.7621 46.5001 16.8706 46.169C16.9644 45.8312 16.9696 45.4749 16.8856 45.1345C16.8596 45.047 16.8557 44.9544 16.8743 44.8651C16.9297 44.7465 17.027 44.6525 17.1475 44.6013C17.7162 44.274 18.2849 43.9472 18.8536 43.6211C18.9551 43.5699 19.0474 43.5023 19.1267 43.421C19.3044 43.2096 19.2783 42.8934 19.1866 42.6334C19.0949 42.3734 18.949 42.1283 18.9135 41.8552C18.8087 41.0377 19.6842 40.4503 19.9798 39.6796C20.0803 39.372 20.1345 39.0511 20.1407 38.7275C20.165 38.3795 20.1669 37.9773 19.9012 37.7547C19.6449 37.5396 19.2465 37.5882 18.9789 37.3881C18.7339 37.2047 18.6497 36.8512 18.3822 36.7034C18.139 36.5687 17.8359 36.6548 17.5647 36.5912C17.0895 36.4808 16.7902 35.9327 16.3038 35.8822C16.0306 35.8522 15.7201 35.9869 15.4956 35.8279C15.2973 35.6858 15.2898 35.4033 15.2524 35.1638C15.186 34.7909 15.007 34.4472 14.7394 34.179C14.4719 33.9108 14.1286 33.7309 13.7558 33.6636C13.4733 33.6187 13.1665 33.6355 12.9252 33.4802C12.682 33.3231 12.5716 33.0294 12.3789 32.8105C12.0721 32.4607 11.5857 32.3354 11.1311 32.2288C10.5138 32.0847 9.89708 31.9401 9.28098 31.7948C8.9536 31.7162 8.53081 31.675 8.35309 31.9631C8.30049 32.0727 8.26395 32.1892 8.24458 32.3092C8.17776 32.5251 8.0445 32.7144 7.86377 32.8501C7.68305 32.9858 7.4641 33.061 7.23813 33.065C7.08343 32.8008 6.83282 32.6065 6.53846 32.5225C6.34613 32.4902 6.15615 32.4452 5.96976 32.3878C5.87242 32.3401 5.78583 32.273 5.71529 32.1907C5.64476 32.1084 5.59176 32.0126 5.55954 31.9091C5.52732 31.8056 5.51656 31.6967 5.5279 31.5889C5.53925 31.4811 5.57247 31.3767 5.62554 31.2822C5.73162 31.0924 5.77242 30.8729 5.74166 30.6576C5.71091 30.4424 5.6103 30.2431 5.4553 30.0906C5.14101 29.8081 4.68642 29.7389 4.26363 29.767C4.15326 29.5256 4.33847 29.2544 4.53677 29.0786C4.73693 28.9046 4.97827 28.7325 5.0213 28.4706C5.09051 28.059 4.56483 27.7466 4.16636 27.8682C3.76789 27.9917 3.51347 28.3789 3.3451 28.7605C3.26344 28.9857 3.15208 29.199 3.01398 29.3947C2.94321 29.4915 2.84704 29.5669 2.73611 29.6124C2.62517 29.658 2.5038 29.672 2.38541 29.6529C2.05616 29.5687 1.93082 29.1777 1.85786 28.8485C1.74094 28.4084 1.68183 27.955 1.682 27.4997C1.68486 27.0399 1.86749 26.5995 2.19085 26.2726C2.73524 25.7712 3.57333 25.8199 4.30853 25.9003C4.22978 25.7953 4.19204 25.6651 4.20237 25.5343C4.2127 25.4034 4.2704 25.2808 4.36466 25.1894C4.46304 25.1021 4.58126 25.0401 4.70906 25.0088C4.83686 24.9775 4.97037 24.9778 5.09799 25.0099C5.31964 25.0558 5.51935 25.175 5.66483 25.3485C5.87435 25.6029 5.93421 25.9489 6.09136 26.237C6.25037 26.527 6.60581 26.7739 6.89578 26.6186C7.14833 26.4839 7.18761 26.136 7.12588 25.8573C7.06227 25.5804 6.92945 25.3092 6.95189 25.0248C6.99492 24.4842 7.55802 24.1568 8.05377 23.9342C8.54952 23.7116 9.11635 23.4104 9.19492 22.8717C9.19855 22.7669 9.21876 22.6634 9.25479 22.5649C9.30965 22.477 9.38635 22.4048 9.47741 22.3554C10.9235 21.3995 12.3958 20.4305 14.0495 19.9086C14.1356 19.8805 14.1449 19.9104 14.2328 19.8899C14.3563 19.8188 14.274 19.6223 14.1561 19.5438C14.0383 19.4652 13.8811 19.4035 13.8512 19.265C13.8306 19.164 13.8905 19.063 13.9055 18.9601C13.9094 18.898 13.898 18.8358 13.8723 18.7791C13.8466 18.7224 13.8074 18.6728 13.7581 18.6348C13.7088 18.5968 13.6509 18.5714 13.5895 18.5609C13.5281 18.5505 13.4651 18.5552 13.406 18.5748C13.2732 18.3989 13.5351 18.195 13.7483 18.1352C14.3869 17.9603 15.0422 17.8536 15.7033 17.8172C15.7796 17.8046 15.8579 17.8177 15.9259 17.8546C15.9745 17.9015 16.0033 17.9652 16.0064 18.0327C16.0096 18.1002 15.9868 18.1663 15.9427 18.2175C15.8527 18.3174 15.7531 18.4083 15.6453 18.4887C15.5379 18.593 15.4613 18.7247 15.4237 18.8695C15.3861 19.0143 15.389 19.1667 15.432 19.3099C15.7781 19.4858 16.1522 19.6672 16.5357 19.6055C16.9174 19.5438 17.256 19.1135 17.0764 18.7712C16.9099 18.4513 16.4067 18.3783 16.3206 18.0285C16.2196 17.6189 16.7995 17.2541 16.6686 16.8538C16.6124 16.6779 16.4366 16.5732 16.3019 16.4478C16.1434 16.2918 16.0356 16.0916 15.9925 15.8733C15.9495 15.6551 15.9732 15.429 16.0606 15.2244C15.8415 15.2627 15.6166 15.248 15.4044 15.1816C15.1922 15.1152 14.999 14.9991 14.8408 14.8428C14.549 14.5491 14.317 14.0833 13.9017 14.0983C13.522 14.1095 13.1946 14.5528 12.8391 14.4181C12.7512 14.3845 12.6595 14.3171 12.5754 14.3564C12.5476 14.3743 12.5242 14.3982 12.5071 14.4264C12.4899 14.4546 12.4793 14.4863 12.4762 14.5192C12.3864 14.9513 12.5417 15.4433 12.306 15.8174C12.0497 16.2233 11.4567 16.2795 11.1461 16.6461C10.9777 16.8444 10.9123 17.1119 10.757 17.3214C10.6017 17.5309 10.2743 17.6656 10.0873 17.4823C10.1789 17.2945 10.204 17.0811 10.1584 16.8772C10.1129 16.6733 9.9994 16.4909 9.83659 16.3599C9.66428 16.2468 9.47818 16.1563 9.28284 16.0905C9.06464 15.9984 8.85702 15.883 8.66363 15.7463C8.56724 15.6876 8.48892 15.6035 8.43727 15.5031C8.3964 15.377 8.4017 15.2404 8.45223 15.1178C8.54695 14.8476 8.71352 14.6084 8.93403 14.4258C9.15454 14.2432 9.42066 14.1241 9.70376 14.0814C9.9507 14.0478 10.2388 14.059 10.4034 13.87C10.4895 13.7709 10.5344 13.6194 10.6616 13.5801C10.7417 13.5634 10.8251 13.5732 10.8992 13.6082C11.2078 13.7167 11.5146 13.8252 11.8233 13.9337C11.9262 13.9809 12.0399 13.9996 12.1526 13.9879C12.2084 13.9807 12.2594 13.9525 12.2952 13.9091C12.331 13.8657 12.3489 13.8102 12.3453 13.7541C12.3153 13.6007 12.0796 13.5277 12.1021 13.3725C12.113 13.3217 12.1399 13.2758 12.1788 13.2415C12.5124 12.8866 12.9204 12.6099 13.3735 12.431C13.8266 12.2522 14.3136 12.1757 14.7997 12.207C14.9157 12.3997 14.7323 12.6261 14.5771 12.7888C14.4237 12.9534 14.3002 13.2452 14.4873 13.3706C14.5627 13.4102 14.6472 13.4295 14.7323 13.4267C14.9598 13.4572 15.1809 13.5242 15.3871 13.625C15.707 13.7634 16.0213 13.9168 16.3281 14.0814C16.2829 13.8809 16.2907 13.672 16.3505 13.4753C16.3843 13.3788 16.4529 13.2983 16.5428 13.2495C16.6327 13.2008 16.7376 13.1872 16.8369 13.2116C17.0203 13.2827 17.1138 13.5258 17.3102 13.5483C17.5703 13.5782 17.6732 13.1929 17.5647 12.9534C17.4561 12.714 17.2391 12.5157 17.2223 12.2519C17.2092 12.0761 17.2766 11.8572 17.1362 11.7506C17.0864 11.7175 17.0293 11.697 16.9697 11.6907C15.7949 11.4756 14.6195 11.2598 13.4434 11.0435C13.2339 11.0042 12.9327 11.0341 12.9233 11.2455C12.9177 11.3652 13.0243 11.4831 12.9776 11.5916C12.9271 11.7076 12.7624 11.6982 12.6427 11.7394C12.5528 11.7802 12.4785 11.8492 12.4313 11.9359C12.384 12.0226 12.3663 12.1224 12.3808 12.2201C12.4128 12.4146 12.4882 12.5994 12.6016 12.7607C12.3714 12.6653 12.0254 12.6485 11.7953 12.5512C11.7618 12.2848 11.6939 12.0238 11.5932 11.7749C11.5875 11.7353 11.5731 11.6974 11.5511 11.6639C11.5292 11.6305 11.5001 11.6022 11.4661 11.5812C11.432 11.5601 11.3937 11.5468 11.354 11.5421C11.3142 11.5375 11.2739 11.5416 11.2359 11.5542C10.9328 11.6009 10.6298 11.6458 10.3267 11.6926C10.2506 11.6962 10.1777 11.7244 10.1191 11.773C10.0012 11.8984 10.1172 12.0985 10.1135 12.2706C10.1025 12.3669 10.0618 12.4573 9.99714 12.5294C9.93244 12.6014 9.8469 12.6516 9.7524 12.6728C9.562 12.7115 9.36554 12.7089 9.17621 12.6653C8.75155 12.5999 8.32876 12.5344 7.9041 12.4689C8.27894 12.3495 8.61232 12.1264 8.86567 11.8254C9.03404 11.6271 9.12383 11.2567 8.88063 11.1632C8.80881 11.1435 8.73387 11.1378 8.65989 11.1464C8.08369 11.1501 7.62911 10.6693 7.09033 10.4654C6.92092 10.4022 6.74172 10.3693 6.56091 10.3682L5.95853 11.1071Z" fill="#E1F0FF" stroke="black" stroke-width="4" mask="url(#path-2-inside-2)"/>
<mask id="path-3-inside-3" fill="white">
<path d="M55.0432 29.5035C54.9772 29.592 54.8905 29.6631 54.7907 29.7103C54.6909 29.7576 54.581 29.7797 54.4707 29.7747C53.8852 29.7242 53.6382 28.8805 53.0583 28.7851C53.007 28.772 52.9527 28.7773 52.9049 28.8001C52.8188 28.8469 52.8039 28.9628 52.7983 29.0601C52.7739 29.5427 52.7534 30.0441 52.9423 30.4893C53.2173 31.1403 53.9301 31.6865 53.7804 32.3768C52.976 32.0045 52.5569 31.101 52.368 30.2349C52.1772 29.3688 52.1472 28.4596 51.8068 27.6403C51.5467 27.9714 51.0042 27.6983 50.7685 27.3503C50.544 27.0211 50.4056 26.6395 50.1886 26.3046C49.9716 25.9716 49.6386 25.6723 49.242 25.6536C48.8248 25.6349 48.4619 25.9211 48.1438 26.1924C47.8672 26.3967 47.6349 26.6551 47.461 26.9519C47.2384 27.4008 47.2964 27.9284 47.2852 28.4278C47.2739 28.9666 47.1598 29.5371 46.7913 29.9337C46.4228 30.3284 45.7437 30.4669 45.3377 30.1096C45.1414 29.905 45.0016 29.6529 44.9318 29.3781C44.4904 28.092 44.1232 26.7816 43.8318 25.4535C43.7644 25.7565 43.4969 26.1475 43.2425 25.9698C43.1856 25.9214 43.1397 25.8615 43.1078 25.7939C42.6326 24.9914 41.7552 24.5088 40.8666 24.2188C39.9799 23.9308 39.0464 23.7961 38.169 23.4781C37.677 23.2994 37.2069 23.0653 36.7678 22.7803C36.6563 22.9446 36.5912 23.1359 36.5793 23.3341C36.5675 23.5323 36.6093 23.73 36.7005 23.9064C36.7991 24.079 36.9519 24.2142 37.1353 24.291C37.3187 24.3678 37.5222 24.3819 37.7144 24.3311C37.909 24.2675 38.0736 24.1328 38.2663 24.0654C38.459 24 38.719 24.0318 38.8032 24.2188C38.8855 24.3966 38.762 24.6117 38.8238 24.7987C38.9154 25.0812 39.3438 25.1037 39.4935 25.3618C39.5375 25.464 39.5476 25.5777 39.5224 25.6861C39.4971 25.7944 39.4378 25.8919 39.3532 25.9642C39.181 26.1045 38.9911 26.2215 38.7882 26.3121C38.1597 26.6619 37.7126 27.2587 37.1626 27.7226C36.6126 28.1884 35.8362 28.527 35.1814 28.2296C35.3367 27.4383 34.3957 26.8584 34.2217 26.0708C34.1637 25.8108 34.1937 25.5358 34.1132 25.2833C33.9954 24.9166 33.6699 24.6659 33.4042 24.3891C33.0815 24.0492 32.83 23.6482 32.6645 23.2097C32.4991 22.7711 32.423 22.304 32.4408 21.8356C32.4558 21.5101 32.5156 21.179 32.4408 20.861C32.3678 20.5449 32.1041 20.2381 31.7785 20.2512C31.0359 20.2848 30.0986 20.3409 29.7095 19.7068C29.5692 19.4804 29.5093 19.1493 29.7114 18.9754C29.8535 18.8538 30.0631 18.865 30.2483 18.8837C30.8076 18.938 31.3651 18.9941 31.9245 19.0483C32.3154 19.0857 32.7382 19.1175 33.075 18.9136C33.4117 18.7097 33.5576 18.1654 33.2452 17.9241C33.0188 17.7482 32.611 17.7576 32.5437 17.4788C32.4894 17.245 32.7476 16.9812 32.6073 16.7848C32.5081 16.6464 32.2836 16.6838 32.1471 16.7886C32.0279 16.9123 31.8984 17.0256 31.7598 17.1272C31.4923 17.2656 31.1743 17.1328 30.8862 17.043C30.5981 16.9532 30.2127 16.9457 30.0743 17.2132C29.9171 17.5106 30.2109 17.9035 30.0575 18.2028C29.8517 18.5975 29.1595 18.373 28.8714 18.7135C28.5421 19.1026 29.0959 19.6862 28.9855 20.1838C28.8434 20.2543 28.6854 20.2867 28.5271 20.2778C28.3687 20.269 28.2153 20.2192 28.0819 20.1333C27.951 20.0443 27.8468 19.9214 27.7802 19.7778C27.7137 19.6341 27.6873 19.4751 27.704 19.3177C27.7302 19.0932 27.8481 18.8631 27.7695 18.6517C27.6848 18.4885 27.5449 18.3606 27.3748 18.2907C26.8323 17.9895 26.2898 17.6896 25.7472 17.3909C25.5957 17.6715 25.7865 18.0176 26.026 18.229C26.2636 18.4385 26.5629 18.5975 26.72 18.8744C26.8195 19.0662 26.842 19.2889 26.7829 19.4968C26.7238 19.7047 26.5876 19.8822 26.402 19.993C26.3785 20.0092 26.3518 20.02 26.3237 20.0249C26.2956 20.0297 26.2668 20.0284 26.2392 20.0211C26.2133 20.0059 26.1907 19.9856 26.1727 19.9615C26.1547 19.9374 26.1417 19.91 26.1345 19.8808C25.8483 19.1456 25.4161 18.4217 24.7277 18.0382C24.0374 17.6528 23.0477 17.7332 22.595 18.3786C22.4884 18.532 22.4154 18.7079 22.3219 18.8706C21.8261 19.733 20.7598 20.1408 19.7646 20.1146C19.6672 20.1208 19.5702 20.0981 19.4858 20.0491C19.325 19.9388 19.3324 19.7031 19.3568 19.5085C19.3923 19.2335 19.426 18.9604 19.4615 18.6854C19.4624 18.5175 19.5273 18.3563 19.643 18.2346C19.8282 18.0887 20.0938 18.1803 20.3296 18.1766C20.5075 18.1687 20.6786 18.106 20.8195 17.9972C20.9605 17.8884 21.0644 17.7387 21.1171 17.5686C21.1646 17.397 21.1642 17.2157 21.116 17.0442C21.0679 16.8728 20.9738 16.7178 20.844 16.5959C20.7374 16.4949 20.5933 16.3677 20.6495 16.2311C20.6723 16.1935 20.703 16.1613 20.7395 16.1367C20.776 16.1122 20.8174 16.0959 20.8608 16.0889C21.2818 15.9673 21.7289 15.9355 22.1423 15.7896C22.5576 15.6456 22.9598 15.35 23.059 14.9216C23.0889 14.7907 23.102 14.6317 23.2199 14.5662C23.2794 14.5423 23.3428 14.5296 23.4069 14.5288C23.6319 14.4966 23.8366 14.3814 23.981 14.2059C24.1253 14.0304 24.1988 13.8073 24.187 13.5804C24.3853 13.4419 24.6641 13.5448 24.8568 13.6926C25.0476 13.8404 25.2178 14.0349 25.4517 14.0985C25.8875 14.2183 26.3085 13.831 26.7612 13.8292C26.952 13.8292 27.1484 13.8965 27.3261 13.831C27.5076 13.7656 27.6161 13.586 27.7545 13.4532C27.8949 13.3185 28.138 13.238 28.2671 13.3821C28.2297 13.1108 28.1942 12.8415 28.1568 12.5721C28.3772 12.6276 28.6069 12.6353 28.8305 12.5946C29.0541 12.554 29.2664 12.4659 29.4532 12.3364C28.9818 12.1774 28.5122 12.0184 28.0408 11.8594C27.9913 11.8472 27.9456 11.8227 27.908 11.7883C27.8051 11.6779 27.908 11.5058 27.9903 11.3805C28.1904 11.0793 28.2241 10.5836 27.8949 10.4339C27.6704 10.331 27.4141 10.4545 27.1989 10.5742C26.8547 10.765 26.5105 10.9577 26.1663 11.1485C26.1345 11.3449 26.3739 11.4572 26.5217 11.5881C26.6118 11.668 26.6755 11.7733 26.7046 11.8901C26.7337 12.0069 26.7267 12.1298 26.6846 12.2426C26.6425 12.3553 26.5672 12.4527 26.4687 12.5219C26.3702 12.591 26.253 12.6288 26.1326 12.6301C26.2004 12.7186 26.2475 12.8211 26.2705 12.9302C26.2935 13.0393 26.2918 13.1522 26.2654 13.2605C26.0353 13.2773 25.8034 13.2942 25.5714 13.311C25.5329 13.3187 25.4932 13.3187 25.4547 13.311C25.4161 13.3033 25.3795 13.288 25.3469 13.2661C25.2721 13.2006 25.2833 13.0846 25.2646 12.9874C25.2338 12.8711 25.1688 12.7667 25.0781 12.6877C24.9874 12.6087 24.8751 12.5586 24.7557 12.544C24.5174 12.5172 24.2761 12.5395 24.0467 12.6095C23.947 12.6446 23.8378 12.642 23.7399 12.602C23.6844 12.5653 23.6424 12.5114 23.6202 12.4486C23.5795 12.3203 23.5726 12.1837 23.6001 12.052C23.6276 11.9203 23.6887 11.7979 23.7773 11.6966C23.957 11.4971 24.1549 11.3149 24.3685 11.1522C24.8526 10.7285 25.2083 10.1777 25.3955 9.56218C25.7772 9.40131 26.1719 9.18431 26.5554 9.02343C26.8637 8.88056 27.1868 8.77203 27.5188 8.69981C27.8313 8.65208 28.148 8.63704 28.4636 8.65491C28.8938 8.66239 29.326 8.66988 29.7563 8.67923C30.1403 8.66309 30.5241 8.71827 30.8881 8.84198C31.2416 8.98789 31.554 9.30403 31.5784 9.68565C31.5857 9.72914 31.5818 9.77379 31.5671 9.81536C31.5524 9.85694 31.5273 9.89406 31.4942 9.92322C31.4445 9.95068 31.3881 9.96365 31.3314 9.96064C30.9741 9.97186 30.8226 10.0617 30.4653 10.0747C30.6916 10.3161 30.946 10.5705 31.2753 10.6135C31.8552 10.6883 32.2724 10.0878 32.5399 9.56592C32.5495 9.69877 32.6106 9.82262 32.7102 9.91104C32.8098 9.99947 32.94 10.0455 33.0731 10.0392C33.2164 10.0146 33.3532 9.96111 33.4753 9.88207C34.626 9.25325 35.9149 8.92026 37.2262 8.91306C37.2133 8.8138 37.2377 8.71329 37.2948 8.63102C37.3518 8.54876 37.4373 8.49061 37.5348 8.46784C37.8023 8.41546 38.0418 8.64556 38.1709 8.885C38.2981 9.12445 38.3785 9.4013 38.5843 9.58089C38.7882 9.76047 39.1829 9.75112 39.2634 9.49297C39.342 9.24417 39.0819 9.03091 38.8668 8.88313C38.6498 8.73722 38.4234 8.46597 38.5693 8.24897C39.6693 8.00391 40.7787 7.76073 41.9068 7.71209C42.0985 7.71789 42.2894 7.6848 42.468 7.61481C42.5564 7.57736 42.63 7.51178 42.6774 7.42824C42.7247 7.34469 42.7432 7.24786 42.7299 7.15276C42.4837 7.2102 42.2261 7.19321 41.9896 7.10395C41.7531 7.01469 41.5485 6.85718 41.4017 6.65142C42.5597 6.55601 43.7719 6.47184 44.885 6.73186L45.8597 7.55869C45.6744 7.75137 45.4275 7.93282 45.5622 8.1255C45.6066 8.16975 45.6605 8.20335 45.7198 8.22376C45.7791 8.24417 45.8423 8.25087 45.9045 8.24335C46.1403 8.2471 46.376 8.25271 46.6098 8.25271C51.4486 12.881 54.4269 19.1195 54.9833 25.7921C54.5904 25.7771 54.2294 26.2747 54.2799 26.7087C54.3397 27.2119 54.7027 27.616 54.9627 28.05C55.0058 28.1205 55.0445 28.1936 55.0787 28.2688L55.0432 29.5035Z"/>
</mask>
<path d="M55.0432 29.5035C54.9772 29.592 54.8905 29.6631 54.7907 29.7103C54.6909 29.7576 54.581 29.7797 54.4707 29.7747C53.8852 29.7242 53.6382 28.8805 53.0583 28.7851C53.007 28.772 52.9527 28.7773 52.9049 28.8001C52.8188 28.8469 52.8039 28.9628 52.7983 29.0601C52.7739 29.5427 52.7534 30.0441 52.9423 30.4893C53.2173 31.1403 53.9301 31.6865 53.7804 32.3768C52.976 32.0045 52.5569 31.101 52.368 30.2349C52.1772 29.3688 52.1472 28.4596 51.8068 27.6403C51.5467 27.9714 51.0042 27.6983 50.7685 27.3503C50.544 27.0211 50.4056 26.6395 50.1886 26.3046C49.9716 25.9716 49.6386 25.6723 49.242 25.6536C48.8248 25.6349 48.4619 25.9211 48.1438 26.1924C47.8672 26.3967 47.6349 26.6551 47.461 26.9519C47.2384 27.4008 47.2964 27.9284 47.2852 28.4278C47.2739 28.9666 47.1598 29.5371 46.7913 29.9337C46.4228 30.3284 45.7437 30.4669 45.3377 30.1096C45.1414 29.905 45.0016 29.6529 44.9318 29.3781C44.4904 28.092 44.1232 26.7816 43.8318 25.4535C43.7644 25.7565 43.4969 26.1475 43.2425 25.9698C43.1856 25.9214 43.1397 25.8615 43.1078 25.7939C42.6326 24.9914 41.7552 24.5088 40.8666 24.2188C39.9799 23.9308 39.0464 23.7961 38.169 23.4781C37.677 23.2994 37.2069 23.0653 36.7678 22.7803C36.6563 22.9446 36.5912 23.1359 36.5793 23.3341C36.5675 23.5323 36.6093 23.73 36.7005 23.9064C36.7991 24.079 36.9519 24.2142 37.1353 24.291C37.3187 24.3678 37.5222 24.3819 37.7144 24.3311C37.909 24.2675 38.0736 24.1328 38.2663 24.0654C38.459 24 38.719 24.0318 38.8032 24.2188C38.8855 24.3966 38.762 24.6117 38.8238 24.7987C38.9154 25.0812 39.3438 25.1037 39.4935 25.3618C39.5375 25.464 39.5476 25.5777 39.5224 25.6861C39.4971 25.7944 39.4378 25.8919 39.3532 25.9642C39.181 26.1045 38.9911 26.2215 38.7882 26.3121C38.1597 26.6619 37.7126 27.2587 37.1626 27.7226C36.6126 28.1884 35.8362 28.527 35.1814 28.2296C35.3367 27.4383 34.3957 26.8584 34.2217 26.0708C34.1637 25.8108 34.1937 25.5358 34.1132 25.2833C33.9954 24.9166 33.6699 24.6659 33.4042 24.3891C33.0815 24.0492 32.83 23.6482 32.6645 23.2097C32.4991 22.7711 32.423 22.304 32.4408 21.8356C32.4558 21.5101 32.5156 21.179 32.4408 20.861C32.3678 20.5449 32.1041 20.2381 31.7785 20.2512C31.0359 20.2848 30.0986 20.3409 29.7095 19.7068C29.5692 19.4804 29.5093 19.1493 29.7114 18.9754C29.8535 18.8538 30.0631 18.865 30.2483 18.8837C30.8076 18.938 31.3651 18.9941 31.9245 19.0483C32.3154 19.0857 32.7382 19.1175 33.075 18.9136C33.4117 18.7097 33.5576 18.1654 33.2452 17.9241C33.0188 17.7482 32.611 17.7576 32.5437 17.4788C32.4894 17.245 32.7476 16.9812 32.6073 16.7848C32.5081 16.6464 32.2836 16.6838 32.1471 16.7886C32.0279 16.9123 31.8984 17.0256 31.7598 17.1272C31.4923 17.2656 31.1743 17.1328 30.8862 17.043C30.5981 16.9532 30.2127 16.9457 30.0743 17.2132C29.9171 17.5106 30.2109 17.9035 30.0575 18.2028C29.8517 18.5975 29.1595 18.373 28.8714 18.7135C28.5421 19.1026 29.0959 19.6862 28.9855 20.1838C28.8434 20.2543 28.6854 20.2867 28.5271 20.2778C28.3687 20.269 28.2153 20.2192 28.0819 20.1333C27.951 20.0443 27.8468 19.9214 27.7802 19.7778C27.7137 19.6341 27.6873 19.4751 27.704 19.3177C27.7302 19.0932 27.8481 18.8631 27.7695 18.6517C27.6848 18.4885 27.5449 18.3606 27.3748 18.2907C26.8323 17.9895 26.2898 17.6896 25.7472 17.3909C25.5957 17.6715 25.7865 18.0176 26.026 18.229C26.2636 18.4385 26.5629 18.5975 26.72 18.8744C26.8195 19.0662 26.842 19.2889 26.7829 19.4968C26.7238 19.7047 26.5876 19.8822 26.402 19.993C26.3785 20.0092 26.3518 20.02 26.3237 20.0249C26.2956 20.0297 26.2668 20.0284 26.2392 20.0211C26.2133 20.0059 26.1907 19.9856 26.1727 19.9615C26.1547 19.9374 26.1417 19.91 26.1345 19.8808C25.8483 19.1456 25.4161 18.4217 24.7277 18.0382C24.0374 17.6528 23.0477 17.7332 22.595 18.3786C22.4884 18.532 22.4154 18.7079 22.3219 18.8706C21.8261 19.733 20.7598 20.1408 19.7646 20.1146C19.6672 20.1208 19.5702 20.0981 19.4858 20.0491C19.325 19.9388 19.3324 19.7031 19.3568 19.5085C19.3923 19.2335 19.426 18.9604 19.4615 18.6854C19.4624 18.5175 19.5273 18.3563 19.643 18.2346C19.8282 18.0887 20.0938 18.1803 20.3296 18.1766C20.5075 18.1687 20.6786 18.106 20.8195 17.9972C20.9605 17.8884 21.0644 17.7387 21.1171 17.5686C21.1646 17.397 21.1642 17.2157 21.116 17.0442C21.0679 16.8728 20.9738 16.7178 20.844 16.5959C20.7374 16.4949 20.5933 16.3677 20.6495 16.2311C20.6723 16.1935 20.703 16.1613 20.7395 16.1367C20.776 16.1122 20.8174 16.0959 20.8608 16.0889C21.2818 15.9673 21.7289 15.9355 22.1423 15.7896C22.5576 15.6456 22.9598 15.35 23.059 14.9216C23.0889 14.7907 23.102 14.6317 23.2199 14.5662C23.2794 14.5423 23.3428 14.5296 23.4069 14.5288C23.6319 14.4966 23.8366 14.3814 23.981 14.2059C24.1253 14.0304 24.1988 13.8073 24.187 13.5804C24.3853 13.4419 24.6641 13.5448 24.8568 13.6926C25.0476 13.8404 25.2178 14.0349 25.4517 14.0985C25.8875 14.2183 26.3085 13.831 26.7612 13.8292C26.952 13.8292 27.1484 13.8965 27.3261 13.831C27.5076 13.7656 27.6161 13.586 27.7545 13.4532C27.8949 13.3185 28.138 13.238 28.2671 13.3821C28.2297 13.1108 28.1942 12.8415 28.1568 12.5721C28.3772 12.6276 28.6069 12.6353 28.8305 12.5946C29.0541 12.554 29.2664 12.4659 29.4532 12.3364C28.9818 12.1774 28.5122 12.0184 28.0408 11.8594C27.9913 11.8472 27.9456 11.8227 27.908 11.7883C27.8051 11.6779 27.908 11.5058 27.9903 11.3805C28.1904 11.0793 28.2241 10.5836 27.8949 10.4339C27.6704 10.331 27.4141 10.4545 27.1989 10.5742C26.8547 10.765 26.5105 10.9577 26.1663 11.1485C26.1345 11.3449 26.3739 11.4572 26.5217 11.5881C26.6118 11.668 26.6755 11.7733 26.7046 11.8901C26.7337 12.0069 26.7267 12.1298 26.6846 12.2426C26.6425 12.3553 26.5672 12.4527 26.4687 12.5219C26.3702 12.591 26.253 12.6288 26.1326 12.6301C26.2004 12.7186 26.2475 12.8211 26.2705 12.9302C26.2935 13.0393 26.2918 13.1522 26.2654 13.2605C26.0353 13.2773 25.8034 13.2942 25.5714 13.311C25.5329 13.3187 25.4932 13.3187 25.4547 13.311C25.4161 13.3033 25.3795 13.288 25.3469 13.2661C25.2721 13.2006 25.2833 13.0846 25.2646 12.9874C25.2338 12.8711 25.1688 12.7667 25.0781 12.6877C24.9874 12.6087 24.8751 12.5586 24.7557 12.544C24.5174 12.5172 24.2761 12.5395 24.0467 12.6095C23.947 12.6446 23.8378 12.642 23.7399 12.602C23.6844 12.5653 23.6424 12.5114 23.6202 12.4486C23.5795 12.3203 23.5726 12.1837 23.6001 12.052C23.6276 11.9203 23.6887 11.7979 23.7773 11.6966C23.957 11.4971 24.1549 11.3149 24.3685 11.1522C24.8526 10.7285 25.2083 10.1777 25.3955 9.56218C25.7772 9.40131 26.1719 9.18431 26.5554 9.02343C26.8637 8.88056 27.1868 8.77203 27.5188 8.69981C27.8313 8.65208 28.148 8.63704 28.4636 8.65491C28.8938 8.66239 29.326 8.66988 29.7563 8.67923C30.1403 8.66309 30.5241 8.71827 30.8881 8.84198C31.2416 8.98789 31.554 9.30403 31.5784 9.68565C31.5857 9.72914 31.5818 9.77379 31.5671 9.81536C31.5524 9.85694 31.5273 9.89406 31.4942 9.92322C31.4445 9.95068 31.3881 9.96365 31.3314 9.96064C30.9741 9.97186 30.8226 10.0617 30.4653 10.0747C30.6916 10.3161 30.946 10.5705 31.2753 10.6135C31.8552 10.6883 32.2724 10.0878 32.5399 9.56592C32.5495 9.69877 32.6106 9.82262 32.7102 9.91104C32.8098 9.99947 32.94 10.0455 33.0731 10.0392C33.2164 10.0146 33.3532 9.96111 33.4753 9.88207C34.626 9.25325 35.9149 8.92026 37.2262 8.91306C37.2133 8.8138 37.2377 8.71329 37.2948 8.63102C37.3518 8.54876 37.4373 8.49061 37.5348 8.46784C37.8023 8.41546 38.0418 8.64556 38.1709 8.885C38.2981 9.12445 38.3785 9.4013 38.5843 9.58089C38.7882 9.76047 39.1829 9.75112 39.2634 9.49297C39.342 9.24417 39.0819 9.03091 38.8668 8.88313C38.6498 8.73722 38.4234 8.46597 38.5693 8.24897C39.6693 8.00391 40.7787 7.76073 41.9068 7.71209C42.0985 7.71789 42.2894 7.6848 42.468 7.61481C42.5564 7.57736 42.63 7.51178 42.6774 7.42824C42.7247 7.34469 42.7432 7.24786 42.7299 7.15276C42.4837 7.2102 42.2261 7.19321 41.9896 7.10395C41.7531 7.01469 41.5485 6.85718 41.4017 6.65142C42.5597 6.55601 43.7719 6.47184 44.885 6.73186L45.8597 7.55869C45.6744 7.75137 45.4275 7.93282 45.5622 8.1255C45.6066 8.16975 45.6605 8.20335 45.7198 8.22376C45.7791 8.24417 45.8423 8.25087 45.9045 8.24335C46.1403 8.2471 46.376 8.25271 46.6098 8.25271C51.4486 12.881 54.4269 19.1195 54.9833 25.7921C54.5904 25.7771 54.2294 26.2747 54.2799 26.7087C54.3397 27.2119 54.7027 27.616 54.9627 28.05C55.0058 28.1205 55.0445 28.1936 55.0787 28.2688L55.0432 29.5035Z" fill="#E1F0FF" stroke="black" stroke-width="4" mask="url(#path-3-inside-3)"/>
</svg>
