<svg width="56" height="56" viewBox="0 0 56 56" fill="none" xmlns="http://www.w3.org/2000/svg">
<mask id="path-2-inside-1" fill="white">
<path d="M18.9778 0.605225L0.765869 20.5665L27.7195 49.3021L45.6886 30.2183L18.9778 0.605225Z"/>
</mask>
<path d="M18.9778 0.605225L0.765869 20.5665L27.7195 49.3021L45.6886 30.2183L18.9778 0.605225Z" fill="black" stroke="black" stroke-width="4" mask="url(#path-2-inside-1)"/>
<mask id="path-3-inside-2" fill="white">
<path d="M1.49438 20.786C1.89722 20.131 2.39676 19.5285 2.97927 18.995L19.7063 3.67628C19.7063 3.67628 25.5341 2.79886 26.7482 5.43112L5.3796 21.2247L1.49438 20.786Z"/>
</mask>
<path d="M1.49438 20.786C1.89722 20.131 2.39676 19.5285 2.97927 18.995L19.7063 3.67628C19.7063 3.67628 25.5341 2.79886 26.7482 5.43112L5.3796 21.2247L1.49438 20.786Z" fill="#F2F2F2" stroke="black" stroke-width="4" mask="url(#path-3-inside-2)"/>
<mask id="path-4-inside-3" fill="white">
<path d="M0.644531 20.4568L25.4127 54.6763C25.4127 54.6763 27.841 56.2118 30.2693 55.3344L55.6445 39.8698L28.6909 3.01807L4.40833 20.1278L0.644531 20.4568Z"/>
</mask>
<path d="M0.644531 20.4568L25.4127 54.6763C25.4127 54.6763 27.841 56.2118 30.2693 55.3344L55.6445 39.8698L28.6909 3.01807L4.40833 20.1278L0.644531 20.4568Z" fill="#175190" stroke="black" stroke-width="4" mask="url(#path-4-inside-3)"/>
</svg>
