<svg width="55" height="55" viewBox="0 0 55 55" fill="none" xmlns="http://www.w3.org/2000/svg">
<mask id="path-1-inside-1" fill="white">
<path d="M55 36.4899C54.8274 41.9709 53.5277 46.3642 51.101 49.6696C48.6738 52.9754 45.7904 54.6284 42.4507 54.6287C39.7305 54.6287 37.3463 53.011 35.2982 49.7757C33.2494 46.5404 32.2251 41.5637 32.2254 34.8457C32.2254 33.3607 32.2598 31.9463 32.3287 30.6027C32.3973 29.2593 32.4834 27.9864 32.5869 26.784L34.3944 9.33467H22.4648C20.3992 31.3982 18.7036 44.525 17.378 48.715C16.0523 52.9049 13.8058 54.9999 10.6386 55C9.20896 54.9639 7.84478 54.377 6.81693 53.3558C6.22097 52.8135 5.74971 52.142 5.43713 51.3899C5.12455 50.6378 4.97846 49.8238 5.0094 49.0066C5.0094 47.3808 6.25743 45.1091 8.7535 42.1914C11.2494 39.2743 12.6352 36.6136 12.9108 34.2093L16.0094 9.33465H11.0002C9.58796 9.3433 8.19816 9.69783 6.94616 10.3688C5.79379 10.9124 4.79106 11.7416 4.02825 12.782L1.80752 16.1764H0C1.68655 10.8022 3.76091 6.76256 6.22306 4.05738C8.68418 1.35244 11.5159 -1.83155e-05 14.7183 1.86036e-10H54.1738V9.33463H40.8498C40.4366 13.5776 40.1181 17.8206 39.8944 22.0636C39.6701 26.3066 39.5583 30.5673 39.5588 34.8457C39.5588 37.7453 40.2129 40.0967 41.5213 41.8997C42.8293 43.703 44.4646 44.6046 46.4274 44.6046C47.6321 44.6046 48.8973 44.1007 50.2231 43.0929C50.8526 42.6394 51.3793 42.0515 51.767 41.3696C52.1547 40.6876 52.3944 39.9277 52.4696 39.1417C52.5729 38.3643 52.6503 37.7544 52.7019 37.3119C52.7536 36.8702 52.7794 36.5962 52.7795 36.4898L55 36.4899Z"/>
</mask>
<path d="M55 36.4899C54.8274 41.9709 53.5277 46.3642 51.101 49.6696C48.6738 52.9754 45.7904 54.6284 42.4507 54.6287C39.7305 54.6287 37.3463 53.011 35.2982 49.7757C33.2494 46.5404 32.2251 41.5637 32.2254 34.8457C32.2254 33.3607 32.2598 31.9463 32.3287 30.6027C32.3973 29.2593 32.4834 27.9864 32.5869 26.784L34.3944 9.33467H22.4648C20.3992 31.3982 18.7036 44.525 17.378 48.715C16.0523 52.9049 13.8058 54.9999 10.6386 55C9.20896 54.9639 7.84478 54.377 6.81693 53.3558C6.22097 52.8135 5.74971 52.142 5.43713 51.3899C5.12455 50.6378 4.97846 49.8238 5.0094 49.0066C5.0094 47.3808 6.25743 45.1091 8.7535 42.1914C11.2494 39.2743 12.6352 36.6136 12.9108 34.2093L16.0094 9.33465H11.0002C9.58796 9.3433 8.19816 9.69783 6.94616 10.3688C5.79379 10.9124 4.79106 11.7416 4.02825 12.782L1.80752 16.1764H0C1.68655 10.8022 3.76091 6.76256 6.22306 4.05738C8.68418 1.35244 11.5159 -1.83155e-05 14.7183 1.86036e-10H54.1738V9.33463H40.8498C40.4366 13.5776 40.1181 17.8206 39.8944 22.0636C39.6701 26.3066 39.5583 30.5673 39.5588 34.8457C39.5588 37.7453 40.2129 40.0967 41.5213 41.8997C42.8293 43.703 44.4646 44.6046 46.4274 44.6046C47.6321 44.6046 48.8973 44.1007 50.2231 43.0929C50.8526 42.6394 51.3793 42.0515 51.767 41.3696C52.1547 40.6876 52.3944 39.9277 52.4696 39.1417C52.5729 38.3643 52.6503 37.7544 52.7019 37.3119C52.7536 36.8702 52.7794 36.5962 52.7795 36.4898L55 36.4899Z" fill="#175190" stroke="black" stroke-width="4" mask="url(#path-1-inside-1)"/>
</svg>
