<svg width="56" height="56" viewBox="0 0 56 56" fill="none" xmlns="http://www.w3.org/2000/svg">
<g clip-path="url(#clip0)">
<mask id="path-1-inside-1" fill="white">
<path d="M41.6381 37.0916L49.9387 27.5488L41.6381 18.006L44.1687 15.0974L55 27.5488L44.1687 40.0001L41.6381 37.0916Z"/>
</mask>
<path d="M41.6381 37.0916L49.9387 27.5488L41.6381 18.006L44.1687 15.0974L55 27.5488L44.1687 40.0001L41.6381 37.0916Z" fill="#175190" stroke="black" stroke-width="2" mask="url(#path-1-inside-1)"/>
<mask id="path-2-inside-2" fill="white">
<path d="M17.9341 28.2294H21.3083V24.3384H17.9341V28.2294ZM34.8727 24.3384H31.4985V28.2294H34.8727V24.3384ZM24.7163 28.2294H28.0905V24.3384H24.7163V28.2294Z"/>
</mask>
<path d="M17.9341 28.2294H21.3083V24.3384H17.9341V28.2294ZM34.8727 24.3384H31.4985V28.2294H34.8727V24.3384ZM24.7163 28.2294H28.0905V24.3384H24.7163V28.2294Z" fill="#175190" stroke="black" stroke-width="2" mask="url(#path-2-inside-2)"/>
<mask id="path-3-inside-3" fill="white">
<path d="M13.362 36.9942L5.05291 27.4514L13.3535 17.9086L10.8229 15L0 27.4514L10.8313 39.9027L13.362 36.9942Z"/>
</mask>
<path d="M13.362 36.9942L5.05291 27.4514L13.3535 17.9086L10.8229 15L0 27.4514L10.8313 39.9027L13.362 36.9942Z" fill="#175190" stroke="black" stroke-width="2" mask="url(#path-3-inside-3)"/>
</g>
<defs>
<clipPath id="clip0">
<rect width="55" height="55" fill="white" transform="translate(0.644531 0.138184)"/>
</clipPath>
</defs>
</svg>
