<svg width="56" height="56" viewBox="0 0 56 56" fill="none" xmlns="http://www.w3.org/2000/svg">
<g clip-path="url(#clip0)">
<g opacity="0.9">
<mask id="path-1-inside-1" fill="white">
<path d="M33.7062 22.2009V5.10387H36.1097V0H18.8875V5.10387H21.291V22.2009C17.9718 23.422 15.1143 25.5918 13.0977 28.4224C11.0811 31.253 10.0008 34.6106 10 38.0498C10 47.4114 17.8355 55 27.5005 55C37.1654 55 45 47.4114 45 38.0498C44.9991 34.6103 43.9184 31.2524 41.9013 28.4217C39.8842 25.591 37.026 23.4215 33.7062 22.2009V22.2009Z"/>
</mask>
<path d="M33.7062 22.2009V5.10387H36.1097V0H18.8875V5.10387H21.291V22.2009C17.9718 23.422 15.1143 25.5918 13.0977 28.4224C11.0811 31.253 10.0008 34.6106 10 38.0498C10 47.4114 17.8355 55 27.5005 55C37.1654 55 45 47.4114 45 38.0498C44.9991 34.6103 43.9184 31.2524 41.9013 28.4217C39.8842 25.591 37.026 23.4215 33.7062 22.2009V22.2009Z" fill="#E1F0FF" stroke="black" stroke-width="4" mask="url(#path-1-inside-1)"/>
</g>
<mask id="path-2-inside-2" fill="white">
<path d="M13.1957 35.9562C13.1957 35.9562 12.0698 51.0843 26.8376 51.3574C41.6054 51.6305 41.5149 36.1353 41.5149 36.1353C41.5149 36.1353 36.0607 41.8758 23.1685 37.1373C23.1685 37.1409 16.4886 35.4091 13.1957 35.9562Z"/>
</mask>
<path d="M13.1957 35.9562C13.1957 35.9562 12.0698 51.0843 26.8376 51.3574C41.6054 51.6305 41.5149 36.1353 41.5149 36.1353C41.5149 36.1353 36.0607 41.8758 23.1685 37.1373C23.1685 37.1409 16.4886 35.4091 13.1957 35.9562Z" fill="#175190" stroke="black" stroke-width="4" mask="url(#path-2-inside-2)"/>
<g opacity="0.3">
<mask id="path-3-inside-3" fill="white">
<path d="M26.9273 31.2849C27.9857 31.2849 28.8437 30.4539 28.8437 29.4287C28.8437 28.4036 27.9857 27.5725 26.9273 27.5725C25.869 27.5725 25.011 28.4036 25.011 29.4287C25.011 30.4539 25.869 31.2849 26.9273 31.2849Z"/>
</mask>
<path d="M26.9273 31.2849C27.9857 31.2849 28.8437 30.4539 28.8437 29.4287C28.8437 28.4036 27.9857 27.5725 26.9273 27.5725C25.869 27.5725 25.011 28.4036 25.011 29.4287C25.011 30.4539 25.869 31.2849 26.9273 31.2849Z" fill="#175190" stroke="black" stroke-width="4" mask="url(#path-3-inside-3)"/>
</g>
<g opacity="0.3">
<mask id="path-4-inside-4" fill="white">
<path d="M28.022 23.1519C28.677 23.1519 29.208 22.6375 29.208 22.0031C29.208 21.3686 28.677 20.8542 28.022 20.8542C27.3669 20.8542 26.8359 21.3686 26.8359 22.0031C26.8359 22.6375 27.3669 23.1519 28.022 23.1519Z"/>
</mask>
<path d="M28.022 23.1519C28.677 23.1519 29.208 22.6375 29.208 22.0031C29.208 21.3686 28.677 20.8542 28.022 20.8542C27.3669 20.8542 26.8359 21.3686 26.8359 22.0031C26.8359 22.6375 27.3669 23.1519 28.022 23.1519Z" fill="#175190" stroke="black" stroke-width="4" mask="url(#path-4-inside-4)"/>
</g>
<g opacity="0.3">
<mask id="path-5-inside-5" fill="white">
<path d="M25.3751 16.5213C26.0302 16.5213 26.5612 16.0069 26.5612 15.3724C26.5612 14.738 26.0302 14.2236 25.3751 14.2236C24.7201 14.2236 24.1891 14.738 24.1891 15.3724C24.1891 16.0069 24.7201 16.5213 25.3751 16.5213Z"/>
</mask>
<path d="M25.3751 16.5213C26.0302 16.5213 26.5612 16.0069 26.5612 15.3724C26.5612 14.738 26.0302 14.2236 25.3751 14.2236C24.7201 14.2236 24.1891 14.738 24.1891 15.3724C24.1891 16.0069 24.7201 16.5213 25.3751 16.5213Z" fill="#175190" stroke="black" stroke-width="4" mask="url(#path-5-inside-5)"/>
</g>
</g>
<defs>
<clipPath id="clip0">
<rect width="55" height="55" fill="white" transform="translate(0.0787354 0.138184)"/>
</clipPath>
</defs>
</svg>
